<svg id="visual" viewBox="0 0 19200 1080" width="540" height="960" xmlns="http://www.w3.org/2000/svg" xmlns:xlink="http://www.w3.org/1999/xlink" version="1.1"><rect x="0" y="0" width="540" height="960" fill="#034159"></rect><path d="M0 705L12.8 696.7C25.7 688.3 51.3 671.7 77 668.8C102.7 666 128.3 677 154 678C179.7 679 205.3 670 231.2 656.7C257 643.3 283 625.7 308.8 633C334.7 640.3 360.3 672.7 386 667.2C411.7 661.7 437.3 618.3 463 598.2C488.7 578 514.3 581 527.2 582.5L540 584L540 961L527.2 961C514.3 961 488.7 961 463 961C437.3 961 411.7 961 386 961C360.3 961 334.7 961 308.8 961C283 961 257 961 231.2 961C205.3 961 179.7 961 154 961C128.3 961 102.7 961 77 961C51.3 961 25.7 961 12.8 961L0 961Z" fill="#02735e"></path><path d="M0 739L12.8 735.8C25.7 732.7 51.3 726.3 77 723.5C102.7 720.7 128.3 721.3 154 726.7C179.7 732 205.3 742 231.2 739.8C257 737.7 283 723.3 308.8 709.5C334.7 695.7 360.3 682.3 386 681.8C411.7 681.3 437.3 693.7 463 703.5C488.7 713.3 514.3 720.7 527.2 724.3L540 728L540 961L527.2 961C514.3 961 488.7 961 463 961C437.3 961 411.7 961 386 961C360.3 961 334.7 961 308.8 961C283 961 257 961 231.2 961C205.3 961 179.7 961 154 961C128.3 961 102.7 961 77 961C51.3 961 25.7 961 12.8 961L0 961Z" fill="#007a5a"></path><path d="M0 799L12.8 782.5C25.7 766 51.3 733 77 730.5C102.7 728 128.3 756 154 769.8C179.7 783.7 205.3 783.3 231.2 783C257 782.7 283 782.3 308.8 773.7C334.7 765 360.3 748 386 752.3C411.7 756.7 437.3 782.3 463 793.3C488.7 804.3 514.3 800.7 527.2 798.8L540 797L540 961L527.2 961C514.3 961 488.7 961 463 961C437.3 961 411.7 961 386 961C360.3 961 334.7 961 308.8 961C283 961 257 961 231.2 961C205.3 961 179.7 961 154 961C128.3 961 102.7 961 77 961C51.3 961 25.7 961 12.8 961L0 961Z" fill="#008053"></path><path d="M0 817L12.8 820.2C25.7 823.3 51.3 829.7 77 832.5C102.7 835.3 128.3 834.7 154 830.5C179.7 826.3 205.3 818.7 231.2 820C257 821.3 283 831.7 308.8 837.8C334.7 844 360.3 846 386 845.5C411.7 845 437.3 842 463 842.3C488.7 842.7 514.3 846.3 527.2 848.2L540 850L540 961L527.2 961C514.3 961 488.7 961 463 961C437.3 961 411.7 961 386 961C360.3 961 334.7 961 308.8 961C283 961 257 961 231.2 961C205.3 961 179.7 961 154 961C128.3 961 102.7 961 77 961C51.3 961 25.7 961 12.8 961L0 961Z" fill="#00864a"></path><path d="M0 902L12.8 898.3C25.7 894.7 51.3 887.3 77 878C102.7 868.7 128.3 857.3 154 859C179.7 860.7 205.3 875.3 231.2 879.8C257 884.3 283 878.7 308.8 873.2C334.7 867.7 360.3 862.3 386 859.8C411.7 857.3 437.3 857.7 463 856C488.7 854.3 514.3 850.7 527.2 848.8L540 847L540 961L527.2 961C514.3 961 488.7 961 463 961C437.3 961 411.7 961 386 961C360.3 961 334.7 961 308.8 961C283 961 257 961 231.2 961C205.3 961 179.7 961 154 961C128.3 961 102.7 961 77 961C51.3 961 25.7 961 12.8 961L0 961Z" fill="#038c3e"></path></svg>